PathFileType	4	(X/Y/Z)	6_2_87_p0_0-432_filt_butterworth.trc
DataRate	CameraRate	NumFrames	NumMarkers	Units	OrigDataRate	OrigDataStartFrame	OrigNumFrames
59.0	59.0	5	27	m	59.0	54	432
Frame#	Time	RHip			RKnee			RAnkle			RBigToe			RSmallToe			RHeel			LHip			LKnee			LAnkle			LBigToe			LSmallToe			LHeel			Neck			Head			Nose			RShoulder			RElbow			RWrist			RThumb			RIndex			RPinky			LShoulder			LElbow			LWrist			LThumb			LIndex			LPinky			
		X1	Y1	Z1	X2	Y2	Z2	X3	Y3	Z3	X4	Y4	Z4	X5	Y5	Z5	X6	Y6	Z6	X7	Y7	Z7	X8	Y8	Z8	X9	Y9	Z9	X10	Y10	Z10	X11	Y11	Z11	X12	Y12	Z12	X13	Y13	Z13	X14	Y14	Z14	X15	Y15	Z15	X16	Y16	Z16	X17	Y17	Z17	X18	Y18	Z18	X19	Y19	Z19	X20	Y20	Z20	X21	Y21	Z21	X22	Y22	Z22	X23	Y23	Z23	X24	Y24	Z24	X25	Y25	Z25	X26	Y26	Z26	X27	Y27	Z27	
54	0.9152542372881356	0.22897424319338489	0.46144164916232483	0.7095835189365202	0.23820919524421452	0.560955915163146	1.115653068340616	0.25839554916279966	0.6029318402496299	1.5023819650332804	0.26376233001090754	0.35634873509479	1.4978892199884835	0.3204241985127063	0.42630521824934964	1.5164748300344002	0.24544024475258303	0.6657649413433501	1.570839259008851	0.018288529975225204	0.4470954343992146	0.7231595951160905	0.06867250809495236	0.49812198605239033	1.0997924052409482	0.12472712751851063	0.6066834642954542	1.5184403655081187	0.11876933176119825	0.39920979707179693	1.5363260827764833	0.06540110974032556	0.4267872037538008	1.5239959382672228	0.1182769524552661	0.6786833303982144	1.6031273943711808	0.07552317261286803	0.4528343229752093	0.09342767678142133	0.06910426343071979	0.4128044518160991	-0.16637553636898986	0.06367322254295284	0.3469223963762686	-0.024445509994468432	0.2327384606941192	0.47815321846398245	0.17062074633876417	0.3379742200557805	0.4738824546701511	0.425349625173677	0.29344048945066153	0.3775144522370758	0.6523110309523751	0.20452708988450544	0.3631035097232086	0.748376976404223	0.22040564483081546	0.3549900810217562	0.8118285784239513	0.2873839130972387	0.43419753188833654	0.8358229386291981	-0.08043445728356632	0.4677902290026004	0.18882354257127584	-0.13446486109368852	0.5027013936501709	0.460097795209142	-0.07477533438749241	0.40059255760603324	0.6968091986209025	0.014033880035874772	0.39295781416016334	0.7694544824158577	-0.0005916696402018896	0.33748507159884467	0.7789546445754505	-0.02946422681189143	0.3816582412408609	0.8084979551858518
55	0.9322033898305084	0.22866102843796315	0.4610693651020486	0.7080075032582603	0.23786178935173868	0.5607344583152023	1.1156412385752439	0.25839314560451854	0.6029052975932863	1.5023869909054235	0.26423321283245477	0.3568350674676861	1.499859546677957	0.32042882990297455	0.4262920705933703	1.5165197475569399	0.24558603886573332	0.6652269331017259	1.5718154667795725	0.01695315440559199	0.4506389514890803	0.7243335998263032	0.06977683522222462	0.49867291355802573	1.0987076571056986	0.12473171008065445	0.6067098090396494	1.5184266918491742	0.11814763181046961	0.39743254769566866	1.53644016256568	0.06456758126137226	0.42211813901944994	1.5213472959194998	0.11809790513636273	0.6793036352987292	1.6021825795696913	0.07551297565193912	0.4528371540889554	0.09342769737968783	0.06908747224993195	0.41277500158677405	-0.1663708481732264	0.0640076969744508	0.34816150114495414	-0.022480053905776783	0.23271722708444065	0.4779285717178881	0.17052697119481164	0.33794055544682305	0.4739268779856509	0.42534680490528454	0.2933745281840052	0.3775519040621041	0.6516391219869868	0.2044800957259975	0.3630587579867859	0.7480495800444827	0.21958196946603994	0.35141573045856717	0.8113001793072793	0.2873998581402617	0.4341046532527573	0.8358569704297479	-0.08040480992260349	0.46784720674950964	0.18845491870986983	-0.13465687625813805	0.5013695139319456	0.46033865380885153	-0.07477111984942475	0.40058764689586845	0.6968186175068696	0.01393154359501386	0.39265774377812274	0.7689661850926189	-0.0006312236929992219	0.3374770184478759	0.7789360770329897	-0.028773229023820363	0.38155959635544484	0.8083521540302095
56	0.9491525423728814	0.22840005146130657	0.46085533777953097	0.7067189670934831	0.23796786437238043	0.5605744554599527	1.1156073077374624	0.2583950202236758	0.6028953984072638	1.5023911363668214	0.2646043936603409	0.35718130425822614	1.5014277703221997	0.3204677738212541	0.42600024915163465	1.5170336706249015	0.2457979301945841	0.6645823267944716	1.5730860627579937	0.016425909435897036	0.45208622180975455	0.7249370369844913	0.07072363937883745	0.49932062607565214	1.0983839240753048	0.12466869793279685	0.6069447372467499	1.5185648893903498	0.11745029312288816	0.3933451645253049	1.5359002167363256	0.0639148615280207	0.4186190631072404	1.5192565039307806	0.11802180189143804	0.6796457300217285	1.6017717356407501	0.07549606884495502	0.45284549677218466	0.09342118845940373	0.06909863818141374	0.41273774974255856	-0.16637938307787753	0.06376080576418962	0.34708666544569855	-0.021790220839365354	0.23271408233180654	0.47754303718356295	0.17001934347127984	0.33787309519743464	0.47407747223896296	0.42497291231115886	0.2935114669995422	0.37758128669048224	0.6512127407317572	0.20455624681008444	0.3630918510476604	0.7481122900991365	0.2194090439911217	0.3500722464977095	0.8107507142540074	0.2874939201286533	0.4340424851097727	0.835856037323071	-0.08041034438773258	0.46794426234389624	0.18662144604398845	-0.13509798205237844	0.4980091870977411	0.45987261030804016	-0.07476785278568354	0.40057717807031057	0.6967932067151493	0.013693712505209267	0.3920029988966991	0.7677729961915905	-0.000770556377391132	0.33742040941404516	0.7788968039018276	-0.03009290934789989	0.3812833375985034	0.8081888102973119
57	0.9661016949152542	0.22827285519596116	0.4608251871585281	0.706116628177256	0.23810532896448797	0.5605315426323324	1.1155713775609835	0.258398813140585	0.6028929938090036	1.5023905767705146	0.26481642210748335	0.35716596958941815	1.5024398530787104	0.32052922525902594	0.4254066832410638	1.5182305822431765	0.2459678730123544	0.6641123610041725	1.5740283724911714	0.01637002634258965	0.4521496009793685	0.7249754821432959	0.0711426175828056	0.49971810871973843	1.0984404353301602	0.12414291423063709	0.6086199951964943	1.519583379888049	0.11690286525882039	0.38812960400135943	1.5349793399721325	0.06362519878936436	0.417079713282069	1.5183610068605775	0.11802644724860006	0.6797280625474634	1.6017980975760417	0.07547835070173861	0.4528557516390917	0.09341064853127462	0.06911386067863981	0.4127115088216499	-0.16639674779773844	0.06303951027247044	0.34395859388316397	-0.021952410884583922	0.23274599274159866	0.4775911548219839	0.16896700957435212	0.3378181860220154	0.4743772818972707	0.4240216312529711	0.29366189222951034	0.3775246723767115	0.6509562504542035	0.2046400112021709	0.36308585877467636	0.7481113461274259	0.2198501889113125	0.35131595185156617	0.8102421190575712	0.2875512627781274	0.43401494396751655	0.8357064909785615	-0.08042678205217968	0.46811339265062757	0.18443753424477985	-0.13565797060491244	0.49366871966667636	0.4586198197392312	-0.07476782549350496	0.4005675725144925	0.6967562502828866	0.013484311721695154	0.3914300543429844	0.7664166542379441	-0.0008361564642001586	0.33740478762872894	0.7788472004092868	-0.03244097844548957	0.3813086966279421	0.8080913951281941
58	0.9830508474576272	0.22823206839612317	0.46086745493926057	0.7060092989773692	0.2381775164958836	0.5605078373687968	1.1154949448774067	0.25839827955885797	0.6028612951369635	1.5023847406561939	0.26496923233298275	0.3567509918342341	1.5034451912067373	0.3205543633758486	0.4247343048914556	1.5194635892374142	0.24604021370608714	0.6638928706900935	1.574383889157335	0.016365390361655352	0.4518253910132647	0.7248579740636164	0.07119855649215708	0.49984268518276614	1.0985342078053824	0.12281295556124093	0.6127856775974414	1.522112856205926	0.11655142375558825	0.3841736854271402	1.5340125763724126	0.06362777119216081	0.4165530273254133	1.518549721549173	0.11811322283623171	0.6795082309975525	1.6023164242310477	0.0754630372157272	0.4528726423480436	0.09340187812486597	0.06911994978383736	0.4126991197304105	-0.1664137351180474	0.06216953048944497	0.3400133062291248	-0.022330321153523222	0.23280546866375992	0.47937073050410306	0.1678706855334651	0.3378952715516948	0.47466854608575176	0.42278423932357856	0.29345412905771673	0.37742988160583435	0.6505832111024751	0.20459117515605044	0.3629204584980566	0.7476285874505713	0.22078563168705428	0.3547897453194413	0.8100656878685479	0.28722584376239224	0.43405907344307326	0.8352722540008517	-0.08043243645643104	0.46825676188663695	0.1830245224697789	-0.13608241554090578	0.4905501651350308	0.45735393740376146	-0.07477848445218079	0.4005687200524055	0.6967596859877675	0.01340264840650762	0.3910917353346758	0.7655127805416919	-0.0004966086470924562	0.33761996141760775	0.7788080223392633	-0.034398687765465216	0.3826742943230046	0.8083110001090525
